<?xml version="1.0" encoding="UTF-8" standalone="no"?>
<!-- Created with Inkscape (http://www.inkscape.org/) -->

<svg
   xmlns:dc="http://purl.org/dc/elements/1.1/"
   xmlns:cc="http://creativecommons.org/ns#"
   xmlns:rdf="http://www.w3.org/1999/02/22-rdf-syntax-ns#"
   xmlns:svg="http://www.w3.org/2000/svg"
   xmlns="http://www.w3.org/2000/svg"
   xmlns:sodipodi="http://sodipodi.sourceforge.net/DTD/sodipodi-0.dtd"
   xmlns:inkscape="http://www.inkscape.org/namespaces/inkscape"
   width="210mm"
   height="297mm"
   viewBox="0 0 210 297"
   version="1.1"
   id="svg4673"
   inkscape:version="0.92.1 r15371"
   sodipodi:docname="ondateclogo.svg">
  <defs
     id="defs4667" />
  <sodipodi:namedview
     id="base"
     pagecolor="#ffffff"
     bordercolor="#666666"
     borderopacity="1.0"
     inkscape:pageopacity="0.0"
     inkscape:pageshadow="2"
     inkscape:zoom="0.35"
     inkscape:cx="-267.14286"
     inkscape:cy="560"
     inkscape:document-units="mm"
     inkscape:current-layer="layer1"
     showgrid="false"
     inkscape:window-width="1600"
     inkscape:window-height="834"
     inkscape:window-x="0"
     inkscape:window-y="0"
     inkscape:window-maximized="1" />
  <metadata
     id="metadata4670">
    <rdf:RDF>
      <cc:Work
         rdf:about="">
        <dc:format>image/svg+xml</dc:format>
        <dc:type
           rdf:resource="http://purl.org/dc/dcmitype/StillImage" />
        <dc:title></dc:title>
      </cc:Work>
    </rdf:RDF>
  </metadata>
  <g
     inkscape:label="Camada 1"
     inkscape:groupmode="layer"
     id="layer1">
    <rect
       style="fill:#f2f2f2;fill-opacity:1;stroke:none;stroke-width:6.49510431;stroke-linecap:round;stroke-miterlimit:4;stroke-dasharray:none;stroke-opacity:1"
       id="rect4639"
       width="197.34648"
       height="284.89023"
       x="7.538063"
       y="5.8821001" />
    <g
       id="g4648"
       transform="matrix(2.1388145,0,0,2.1388145,318.39192,-98.369834)">
      <path
         style="fill:#333333;fill-opacity:1;stroke:none;stroke-width:1.09236443;stroke-linecap:round;stroke-miterlimit:4;stroke-dasharray:none;stroke-opacity:1"
         d="m -99.20444,63.821468 a 37.671706,37.671706 0 0 0 -37.52812,34.80453 c 0.869,-0.13167 2.27821,-0.14122 4.88698,-0.14122 h 4.89426 l 0.003,-4.93359 c 0.004,-5.6128 0.14678,-6.66711 1.17082,-8.6158 1.14804,-2.18497 3.29312,-3.92945 5.69334,-4.63035 0.63528,-0.18554 1.54897,-0.27788 2.46108,-0.27697 v 0 c 0.91217,0 1.82275,0.0948 2.45202,0.28153 3.54682,1.05232 6.23408,4.13785 6.68366,7.67438 0.0384,0.30157 0.0731,1.77624 0.10152,4.08711 -2.34658,2.4102 -3.66183,5.63981 -3.66678,9.003672 0.002,3.40596 1.34739,6.67364 3.74405,9.09366 l 0.005,16.96282 0.38341,0.68222 c 0.63458,1.12913 2.17005,1.78536 3.40165,1.45373 0.94594,-0.25473 1.62707,-0.82939 2.02717,-1.71028 0.12806,-0.28177 0.20725,-17.77563 0.25656,-20.40135 l -0.74896,-0.42976 -0.0115,-4.32278 3.73787,-2.17156 3.749498,2.15147 0.0115,4.32279 -0.76033,0.44167 c -0.10261,4.72914 0.53902,21.69343 -0.41636,22.90053 -1.20074,2.37878 -4.472648,4.95458 -7.105198,5.36508 -1.60785,0.25073 -2.23179,0.22202 -3.73524,-0.17216 -2.50476,-0.65667 -4.68123,-2.34524 -5.8506,-4.5393 -1.13915,-2.13709 -1.09099,-1.16483 -1.09798,-22.1687 -0.004,-10.857722 -0.078,-19.499402 -0.17127,-19.901212 -0.66392,-2.86296 -4.34562,-3.34979 -5.76235,-0.76195 -0.27357,0.49959 -0.32109,1.4156 -0.4008,7.71826 -0.0903,7.134302 -0.0917,7.152842 -0.51323,7.743922 -0.23246,0.32587 -0.73844,0.75365 -1.12438,0.95056 -0.66232,0.3379 -1.08512,0.35797 -7.5316,0.35797 -4.38237,0 -5.97968,-0.0101 -6.77305,-0.12232 a 37.671706,37.671706 0 0 0 37.53349,34.64685 37.671706,37.671706 0 0 0 37.52833,-34.80453 c -0.86904,0.13167 -2.27829,0.14122 -4.88716,0.14122 h -4.89409 l -0.003,4.93358 c -0.003,5.61282 -0.14676,6.66713 -1.17075,8.61581 -1.14811,2.18497 -3.29314,3.92944 -5.69333,4.63033 -0.6353,0.18556 -1.54898,0.27687 -2.46109,0.27687 -0.91217,-6.7e-4 -1.82286,-0.0947 -2.45218,-0.28141 -3.546772,-1.05234 -6.233992,-4.13787 -6.683502,-7.67436 -0.0425,-0.33403 -0.0805,-2.1044 -0.11053,-4.86133 a 12.934188,12.934188 0 0 0 3.61079,-8.94355 12.934188,12.934188 0 0 0 -3.67934,-9.033332 l -0.005,-16.30918 -0.38354,-0.68211 c -0.63452,-1.12914 -2.16989,-1.78526 -3.40154,-1.45362 -0.94595,0.25473 -1.62701,0.82927 -2.02711,1.71016 -0.12622,0.27775 -0.20492,0.28535 -0.25435,1.84112 l 0.016,1.3e-4 c 0,0.41829 -0.004,8.37819 -0.004,8.82543 v 7.92064 c 0.26347,0.11239 0.52038,0.23962 0.76951,0.38096 1.75235,1.00549 3.03354,2.6659 3.56163,4.61599 0.52817,1.950092 0.26002,4.030082 -0.74544,5.782462 -0.42747,0.73902 -0.97618,1.40096 -1.62308,1.95808 l -0.0146,-5.4643 -5.002448,-2.870342 -3.09291,1.796772 v 0.12711 h -0.004 v -0.12478 l -1.89003,1.09798 0.0145,5.42904 c -2.73944,-2.38833 -3.41026,-6.3793 -1.6021,-9.531932 0.80024,-1.38795 2.0178,-2.48823 3.47927,-3.1444 0,-2.62106 0,-5.68834 0.002,-7.72095 v -8.86579 h -0.004 c 0.002,-0.0435 0.002,-0.0836 0.004,-0.12609 v -0.13736 h 0.005 c 0.12603,-3.74316 0.39675,-3.62088 0.98018,-4.77672 1.20088,-2.37877 4.059428,-4.45862 6.691968,-4.86913 0.65313,-0.10186 1.14405,-0.15758 1.5974,-0.16142 0.66262,-0.005 1.24522,0.0997 2.13785,0.33369 2.50483,0.6567 4.68122,2.34511 5.85061,4.5392 1.139072,2.13706 1.090972,1.16484 1.097972,22.16869 0.004,10.857742 0.0781,19.499422 0.1712,19.901212 0.664,2.86296 4.34581,3.34966 5.76254,0.76182 0.27352,-0.49957 0.32091,-1.41547 0.40069,-7.71813 0.0903,-7.13429 0.0917,-7.15284 0.51321,-7.743922 0.23248,-0.32588 0.73846,-0.75366 1.12432,-0.95057 0.66233,-0.33786 1.08512,-0.35796 7.53166,-0.35796 4.38232,0 5.97963,0.0102 6.77307,0.12231 a 37.671706,37.671706 0 0 0 -37.5337,-34.64684 z m -0.15215,38.498912 a 2.2367949,2.2367949 0 0 0 -1.82864,1.12073 2.2367949,2.2367949 0 0 0 0.82696,3.05335 2.2367949,2.2367949 0 0 0 3.053248,-0.82683 2.2367949,2.2367949 0 0 0 -0.82684,-3.05336 2.2367949,2.2367949 0 0 0 -1.224728,-0.29389 z"
         id="path4625"
         inkscape:connector-curvature="0" />
      <text
         id="text4629"
         y="60.624435"
         x="-135.73248"
         style="font-style:normal;font-variant:normal;font-weight:normal;font-stretch:normal;font-size:4.39616299px;line-height:1.25;font-family:'GANG BANG CRIME';-inkscape-font-specification:'GANG BANG CRIME';letter-spacing:0px;word-spacing:0px;fill:#333333;fill-opacity:1;stroke:none;stroke-width:0.10990409"
         xml:space="preserve"><tspan
           style="font-style:normal;font-variant:normal;font-weight:normal;font-stretch:normal;font-family:Abstract;-inkscape-font-specification:Abstract;fill:#333333;stroke-width:0.10990409"
           y="60.624435"
           x="-135.73248"
           id="tspan4627"
           sodipodi:role="line">tecnica</tspan></text>
      <text
         xml:space="preserve"
         style="font-style:normal;font-variant:normal;font-weight:normal;font-stretch:normal;font-size:5.3236599px;line-height:1.25;font-family:'GANG BANG CRIME';-inkscape-font-specification:'GANG BANG CRIME';letter-spacing:0px;word-spacing:0px;fill:#333333;fill-opacity:1;stroke:none;stroke-width:0.13309149"
         x="-137.78267"
         y="175.55286"
         id="text4633"><tspan
           sodipodi:role="line"
           id="tspan4631"
           x="-137.78267"
           y="175.55286"
           style="font-style:normal;font-variant:normal;font-weight:normal;font-stretch:normal;font-family:Abstract;-inkscape-font-specification:Abstract;fill:#333333;stroke-width:0.13309149">digital</tspan></text>
      <text
         xml:space="preserve"
         style="font-style:normal;font-variant:normal;font-weight:normal;font-stretch:normal;font-size:40.87304306px;line-height:1.25;font-family:'GANG BANG CRIME';-inkscape-font-specification:'GANG BANG CRIME';letter-spacing:0px;word-spacing:0px;fill:#333333;fill-opacity:1;stroke:none;stroke-width:1.02182603"
         x="-137.73782"
         y="164.33971"
         id="text4637"><tspan
           sodipodi:role="line"
           id="tspan4635"
           x="-137.73782"
           y="164.33971"
           style="font-style:normal;font-variant:normal;font-weight:normal;font-stretch:normal;font-family:REZ;-inkscape-font-specification:REZ;fill:#333333;stroke-width:1.02182603">onda</tspan></text>
    </g>
  </g>
</svg>
